{
  "accessors": [
    {
      "bufferView": 2,
      "componentType": 5126,
      "count": 2105,
      "max": [
        1.082540512084961,
        2.0223915576934814,
        1.0046474933624268
      ],
      "min": [
        -1.082540512084961,
        -2.01082706451416,
        0.024033188819885254
      ],
      "type": "VEC3"
    },
    {
      "bufferView": 2,
      "byteOffset": 25260,
      "componentType": 5126,
      "count": 2105,
      "max": [
        1.0,
        1.0,
        1.0
      ],
      "min": [
        -1.0,
        -0.9999998807907104,
        -1.0
      ],
      "type": "VEC3"
    },
    {
      "bufferView": 1,
      "componentType": 5126,
      "count": 2105,
      "max": [
        1.0,
        0.7500000596046448
      ],
      "min": [
        0.0,
        0.0
      ],
      "type": "VEC2"
    },
    {
      "bufferView": 0,
      "componentType": 5125,
      "count": 4632,
      "type": "SCALAR"
    },
    {
      "bufferView": 2,
      "byteOffset": 50520,
      "componentType": 5126,
      "count": 33381,
      "max": [
        1.0941531658172607,
        2.1159234046936035,
        1.0503907203674316
      ],
      "min": [
        -1.0941530466079712,
        -2.0994205474853516,
        0.10026378929615021
      ],
      "type": "VEC3"
    },
    {
      "bufferView": 2,
      "byteOffset": 451092,
      "componentType": 5126,
      "count": 33381,
      "max": [
        1.0,
        0.9999967813491821,
        0.999997615814209
      ],
      "min": [
        -1.0,
        -0.9999967813491821,
        -0.9999977350234985
      ],
      "type": "VEC3"
    },
    {
      "bufferView": 1,
      "byteOffset": 16840,
      "componentType": 5126,
      "count": 33381,
      "max": [
        0.7500002384185791,
        0.8750002384185791
      ],
      "min": [
        0.2500000596046448,
        0.3750000596046448
      ],
      "type": "VEC2"
    },
    {
      "bufferView": 0,
      "byteOffset": 18528,
      "componentType": 5125,
      "count": 147492,
      "type": "SCALAR"
    },
    {
      "bufferView": 2,
      "byteOffset": 851664,
      "componentType": 5126,
      "count": 2069,
      "max": [
        0.7984169721603394,
        1.8321012258529663,
        1.2112165689468384
      ],
      "min": [
        -0.7984169721603394,
        -1.5366296768188477,
        0.8030287623405457
      ],
      "type": "VEC3"
    },
    {
      "bufferView": 2,
      "byteOffset": 876492,
      "componentType": 5126,
      "count": 2069,
      "max": [
        0.697051465511322,
        0.2157987505197525,
        0.999980092048645
      ],
      "min": [
        -0.697051465511322,
        -0.3109307885169983,
        0.7164045572280884
      ],
      "type": "VEC3"
    },
    {
      "bufferView": 1,
      "byteOffset": 283888,
      "componentType": 5126,
      "count": 2069,
      "max": [
        0.7500001192092896,
        0.7216191291809082
      ],
      "min": [
        0.646178126335144,
        0.5083172917366028
      ],
      "type": "VEC2"
    },
    {
      "bufferView": 0,
      "byteOffset": 608496,
      "componentType": 5125,
      "count": 10368,
      "type": "SCALAR"
    },
    {
      "bufferView": 2,
      "byteOffset": 901320,
      "componentType": 5126,
      "count": 3159,
      "max": [
        1.0547987222671509,
        -1.4951564073562622,
        0.8114507794380188
      ],
      "min": [
        -1.0547987222671509,
        -2.078317642211914,
        0.3282296359539032
      ],
      "type": "VEC3"
    },
    {
      "bufferView": 2,
      "byteOffset": 939228,
      "componentType": 5126,
      "count": 3159,
      "max": [
        0.9736505746841431,
        0.9875879287719727,
        0.9987326264381409
      ],
      "min": [
        -0.9736505746841431,
        -0.9886706471443176,
        -0.9829769730567932
      ],
      "type": "VEC3"
    },
    {
      "bufferView": 1,
      "byteOffset": 300440,
      "componentType": 5126,
      "count": 3159,
      "max": [
        0.6250001192092896,
        0.8750002384185791
      ],
      "min": [
        0.45804986357688904,
        0.7255846261978149
      ],
      "type": "VEC2"
    },
    {
      "bufferView": 0,
      "byteOffset": 649968,
      "componentType": 5125,
      "count": 14016,
      "type": "SCALAR"
    },
    {
      "bufferView": 2,
      "byteOffset": 977136,
      "componentType": 5126,
      "count": 9138,
      "max": [
        1.0910391807556152,
        2.0582492351531982,
        1.1991727352142334
      ],
      "min": [
        -1.0910389423370361,
        -2.0685548782348633,
        0.3254234790802002
      ],
      "type": "VEC3"
    },
    {
      "bufferView": 2,
      "byteOffset": 1086792,
      "componentType": 5126,
      "count": 9138,
      "max": [
        0.9999873638153076,
        0.9999926090240479,
        0.999984860420227
      ],
      "min": [
        -0.9999873638153076,
        -0.9998927116394043,
        -0.9999624490737915
      ],
      "type": "VEC3"
    },
    {
      "bufferView": 1,
      "byteOffset": 325712,
      "componentType": 5126,
      "count": 9138,
      "max": [
        0.8750001192092896,
        1.0000001192092896
      ],
      "min": [
        0.1250000149011612,
        0.0
      ],
      "type": "VEC2"
    },
    {
      "bufferView": 0,
      "byteOffset": 706032,
      "componentType": 5125,
      "count": 40476,
      "type": "SCALAR"
    },
    {
      "bufferView": 2,
      "byteOffset": 1196448,
      "componentType": 5126,
      "count": 1206,
      "max": [
        0.9412668943405151,
        2.0615394115448,
        0.9797471761703491
      ],
      "min": [
        -0.9412669539451599,
        1.655912160873413,
        0.9057402014732361
      ],
      "type": "VEC3"
    },
    {
      "bufferView": 2,
      "byteOffset": 1210920,
      "componentType": 5126,
      "count": 1206,
      "max": [
        0.9442216157913208,
        0.964303731918335,
        0.9873810410499573
      ],
      "min": [
        -0.9441770911216736,
        -0.9894298911094666,
        -0.8875494003295898
      ],
      "type": "VEC3"
    },
    {
      "bufferView": 1,
      "byteOffset": 398816,
      "componentType": 5126,
      "count": 1206,
      "max": [
        0.7500002384185791,
        0.5223394632339478
      ],
      "min": [
        0.6329444050788879,
        0.4943649172782898
      ],
      "type": "VEC2"
    },
    {
      "bufferView": 0,
      "byteOffset": 867936,
      "componentType": 5125,
      "count": 6240,
      "type": "SCALAR"
    },
    {
      "bufferView": 2,
      "byteOffset": 1225392,
      "componentType": 5126,
      "count": 4403,
      "max": [
        0.7499366402626038,
        2.061277389526367,
        0.2569383680820465
      ],
      "min": [
        -0.749936580657959,
        1.242973804473877,
        0.09245245903730392
      ],
      "type": "VEC3"
    },
    {
      "bufferView": 2,
      "byteOffset": 1278228,
      "componentType": 5126,
      "count": 4403,
      "max": [
        0.9999281167984009,
        0.9997724294662476,
        1.0
      ],
      "min": [
        -0.9999281167984009,
        -0.9994971752166748,
        -1.0
      ],
      "type": "VEC3"
    },
    {
      "bufferView": 1,
      "byteOffset": 408464,
      "componentType": 5126,
      "count": 4403,
      "max": [
        0.8822470307350159,
        0.3490316867828369
      ],
      "min": [
        0.6149426102638245,
        0.15096834301948547
      ],
      "type": "VEC2"
    },
    {
      "bufferView": 0,
      "byteOffset": 892896,
      "componentType": 5125,
      "count": 19296,
      "type": "SCALAR"
    },
    {
      "bufferView": 2,
      "byteOffset": 1331064,
      "componentType": 5126,
      "count": 5671,
      "max": [
        1.0867825746536255,
        1.9538192749023438,
        1.0389528274536133
      ],
      "min": [
        -1.0867825746536255,
        -2.053126335144043,
        0.33479738235473633
      ],
      "type": "VEC3"
    },
    {
      "bufferView": 2,
      "byteOffset": 1399116,
      "componentType": 5126,
      "count": 5671,
      "max": [
        0.9955313801765442,
        0.999098539352417,
        0.9999997615814209
      ],
      "min": [
        -0.9955313801765442,
        -0.9992858171463013,
        -0.9999997615814209
      ],
      "type": "VEC3"
    },
    {
      "bufferView": 1,
      "byteOffset": 443688,
      "componentType": 5126,
      "count": 5671,
      "max": [
        1.0,
        1.0
      ],
      "min": [
        0.0,
        0.0
      ],
      "type": "VEC2"
    },
    {
      "bufferView": 0,
      "byteOffset": 970080,
      "componentType": 5125,
      "count": 23880,
      "type": "SCALAR"
    },
    {
      "bufferView": 2,
      "byteOffset": 1467168,
      "componentType": 5126,
      "count": 412,
      "max": [
        0.8647332787513733,
        1.8656470775604248,
        0.9774540662765503
      ],
      "min": [
        -0.8647332191467285,
        1.6492762565612793,
        0.9463995695114136
      ],
      "type": "VEC3"
    },
    {
      "bufferView": 2,
      "byteOffset": 1472112,
      "componentType": 5126,
      "count": 412,
      "max": [
        0.9430658221244812,
        0.986436665058136,
        0.8858184814453125
      ],
      "min": [
        -0.9430716037750244,
        -0.8680267930030823,
        -0.9500805139541626
      ],
      "type": "VEC3"
    },
    {
      "bufferView": 1,
      "byteOffset": 489056,
      "componentType": 5126,
      "count": 412,
      "max": [
        0.47056829929351807,
        0.7500001788139343
      ],
      "min": [
        0.42253151535987854,
        0.7499999403953552
      ],
      "type": "VEC2"
    },
    {
      "bufferView": 0,
      "byteOffset": 1065600,
      "componentType": 5125,
      "count": 1728,
      "type": "SCALAR"
    },
    {
      "bufferView": 2,
      "byteOffset": 1477056,
      "componentType": 5126,
      "count": 7744,
      "max": [
        1.0855671167373657,
        1.792570948600769,
        0.8487441539764404
      ],
      "min": [
        -1.0855669975280762,
        -1.5776921510696411,
        0.02868819236755371
      ],
      "type": "VEC3"
    },
    {
      "bufferView": 2,
      "byteOffset": 1569984,
      "componentType": 5126,
      "count": 7744,
      "max": [
        1.0,
        0.99993896484375,
        1.0
      ],
      "min": [
        -1.0,
        -0.99993896484375,
        -1.0
      ],
      "type": "VEC3"
    },
    {
      "bufferView": 1,
      "byteOffset": 492352,
      "componentType": 5126,
      "count": 7744,
      "max": [
        1.0,
        0.1979319155216217
      ],
      "min": [
        0.0,
        -0.23081569373607635
      ],
      "type": "VEC2"
    },
    {
      "bufferView": 0,
      "byteOffset": 1072512,
      "componentType": 5125,
      "count": 41640,
      "type": "SCALAR"
    },
    {
      "bufferView": 2,
      "byteOffset": 1662912,
      "componentType": 5126,
      "count": 2684,
      "max": [
        1.0855671167373657,
        1.8222355842590332,
        0.8784087896347046
      ],
      "min": [
        -1.0855669975280762,
        -1.6073567867279053,
        -0.0009764432907104492
      ],
      "type": "VEC3"
    },
    {
      "bufferView": 2,
      "byteOffset": 1695120,
      "componentType": 5126,
      "count": 2684,
      "max": [
        0.999920129776001,
        1.0,
        1.0
      ],
      "min": [
        -0.9999202489852905,
        -1.0,
        -1.0
      ],
      "type": "VEC3"
    },
    {
      "bufferView": 1,
      "byteOffset": 554304,
      "componentType": 5126,
      "count": 2684,
      "max": [
        1.0,
        0.1979319155216217
      ],
      "min": [
        0.0,
        -0.2288646399974823
      ],
      "type": "VEC2"
    },
    {
      "bufferView": 0,
      "byteOffset": 1239072,
      "componentType": 5125,
      "count": 14400,
      "type": "SCALAR"
    }
  ],
  "asset": {
    "extras": {
      "author": "Unity Fan youtube channel (https://sketchfab.com/unityfan777)",
      "license": "SKETCHFAB Standard (https://sketchfab.com/licenses)",
      "source": "https://sketchfab.com/3d-models/free-concept-car-002-public-domain-cc0-090898c41395478d9dc4dea261944581",
      "title": "FREE Concept Car 002  - public domain (CC0)"
    },
    "generator": "Sketchfab-15.50.0",
    "version": "2.0"
  },
  "bufferViews": [
    {
      "buffer": 0,
      "byteLength": 1296672,
      "name": "floatBufferViews",
      "target": 34963
    },
    {
      "buffer": 0,
      "byteLength": 575776,
      "byteOffset": 1296672,
      "byteStride": 8,
      "name": "floatBufferViews",
      "target": 34962
    },
    {
      "buffer": 0,
      "byteLength": 1727328,
      "byteOffset": 1872448,
      "byteStride": 12,
      "name": "floatBufferViews",
      "target": 34962
    }
  ],
  "buffers": [
    {
      "byteLength": 3599776,
      "uri": "scene.bin"
    }
  ],
  "extensionsUsed": [
    "KHR_materials_specular",
    "KHR_materials_emissive_strength"
  ],
  "materials": [
    {
      "doubleSided": true,
      "name": "blocker",
      "pbrMetallicRoughness": {
        "baseColorFactor": [
          0.0,
          0.0,
          0.0,
          1.0
        ],
        "metallicFactor": 0.0
      }
    },
    {
      "doubleSided": true,
      "name": "carpaint",
      "pbrMetallicRoughness": {
        "baseColorFactor": [
          1.0,
          0.0,
          0.003250060000000018,
          1.0
        ],
        "metallicFactor": 0.0,
        "roughnessFactor": 0.0
      }
    },
    {
      "alphaMode": "BLEND",
      "doubleSided": true,
      "name": "glass1",
      "pbrMetallicRoughness": {
        "baseColorFactor": [
          0.0,
          0.0,
          0.0,
          0.634048057688683
        ],
        "metallicFactor": 0.0,
        "roughnessFactor": 0.0
      }
    },
    {
      "alphaMode": "BLEND",
      "doubleSided": true,
      "extensions": {
        "KHR_materials_specular": {
          "specularColorFactor": [
            1.0,
            1.0,
            1.0
          ],
          "specularFactor": 1.0
        }
      },
      "name": "glass2",
      "pbrMetallicRoughness": {
        "baseColorFactor": [
          0.0,
          0.0,
          0.0,
          0.11115316564215749
        ],
        "metallicFactor": 0.0,
        "roughnessFactor": 0.0
      }
    },
    {
      "doubleSided": true,
      "extensions": {
        "KHR_materials_specular": {
          "specularColorFactor": [
            1.0,
            1.0,
            1.0
          ],
          "specularFactor": 0.1780350704388061
        }
      },
      "name": "plastic",
      "pbrMetallicRoughness": {
        "baseColorFactor": [
          0.0,
          0.0,
          0.0,
          1.0
        ],
        "metallicFactor": 0.396921304318747,
        "roughnessFactor": 0.36044026533875684
      }
    },
    {
      "alphaMode": "BLEND",
      "doubleSided": true,
      "name": "glass3",
      "pbrMetallicRoughness": {
        "baseColorFactor": [
          0.7999999999999999,
          0.0009997500000000026,
          0.0,
          0.5063644212587175
        ],
        "metallicFactor": 0.0,
        "roughnessFactor": 0.0
      }
    },
    {
      "doubleSided": true,
      "name": "metal1",
      "pbrMetallicRoughness": {
        "roughnessFactor": 0.2570773215621181
      }
    },
    {
      "doubleSided": true,
      "name": "chrome",
      "pbrMetallicRoughness": {
        "roughnessFactor": 0.0
      }
    },
    {
      "doubleSided": true,
      "emissiveFactor": [
        1.0,
        0.0,
        0.0
      ],
      "extensions": {
        "KHR_materials_emissive_strength": {
          "emissiveStrength": 10.0
        },
        "KHR_materials_specular": {
          "specularColorFactor": [
            1.0,
            1.0,
            1.0
          ],
          "specularFactor": 1.0
        }
      },
      "name": "taillights",
      "pbrMetallicRoughness": {
        "baseColorFactor": [
          1.0,
          0.0,
          0.0,
          1.0
        ],
        "metallicFactor": 0.0,
        "roughnessFactor": 0.0
      }
    },
    {
      "doubleSided": true,
      "name": "metal2",
      "pbrMetallicRoughness": {
        "baseColorFactor": [
          0.4404641729196031,
          0.4149045143497862,
          0.4149045143497862,
          1.0
        ],
        "roughnessFactor": 0.22059628258212793
      }
    },
    {
      "doubleSided": true,
      "extensions": {
        "KHR_materials_specular": {
          "specularColorFactor": [
            1.0,
            1.0,
            1.0
          ],
          "specularFactor": 0.3421997458487618
        }
      },
      "name": "rubber",
      "pbrMetallicRoughness": {
        "baseColorFactor": [
          0.0,
          0.0,
          0.0,
          1.0
        ],
        "metallicFactor": 0.0,
        "roughnessFactor": 0.4394825164620689
      }
    }
  ],
  "meshes": [
    {
      "name": "future_car_002_by_unityfan_blocker_0",
      "primitives": [
        {
          "attributes": {
            "NORMAL": 1,
            "POSITION": 0,
            "TEXCOORD_0": 2
          },
          "indices": 3,
          "material": 0,
          "mode": 4
        }
      ]
    },
    {
      "name": "future_car_002_by_unityfan_carpaint_0",
      "primitives": [
        {
          "attributes": {
            "NORMAL": 5,
            "POSITION": 4,
            "TEXCOORD_0": 6
          },
          "indices": 7,
          "material": 1,
          "mode": 4
        }
      ]
    },
    {
      "name": "future_car_002_by_unityfan_glass1_0",
      "primitives": [
        {
          "attributes": {
            "NORMAL": 9,
            "POSITION": 8,
            "TEXCOORD_0": 10
          },
          "indices": 11,
          "material": 2,
          "mode": 4
        }
      ]
    },
    {
      "name": "future_car_002_by_unityfan_glass2_0",
      "primitives": [
        {
          "attributes": {
            "NORMAL": 13,
            "POSITION": 12,
            "TEXCOORD_0": 14
          },
          "indices": 15,
          "material": 3,
          "mode": 4
        }
      ]
    },
    {
      "name": "future_car_002_by_unityfan_plastic_0",
      "primitives": [
        {
          "attributes": {
            "NORMAL": 17,
            "POSITION": 16,
            "TEXCOORD_0": 18
          },
          "indices": 19,
          "material": 4,
          "mode": 4
        }
      ]
    },
    {
      "name": "future_car_002_by_unityfan_glass3_0",
      "primitives": [
        {
          "attributes": {
            "NORMAL": 21,
            "POSITION": 20,
            "TEXCOORD_0": 22
          },
          "indices": 23,
          "material": 5,
          "mode": 4
        }
      ]
    },
    {
      "name": "future_car_002_by_unityfan_metal1_0",
      "primitives": [
        {
          "attributes": {
            "NORMAL": 25,
            "POSITION": 24,
            "TEXCOORD_0": 26
          },
          "indices": 27,
          "material": 6,
          "mode": 4
        }
      ]
    },
    {
      "name": "future_car_002_by_unityfan_chrome_0",
      "primitives": [
        {
          "attributes": {
            "NORMAL": 29,
            "POSITION": 28,
            "TEXCOORD_0": 30
          },
          "indices": 31,
          "material": 7,
          "mode": 4
        }
      ]
    },
    {
      "name": "future_car_002_by_unityfan_taillights_0",
      "primitives": [
        {
          "attributes": {
            "NORMAL": 33,
            "POSITION": 32,
            "TEXCOORD_0": 34
          },
          "indices": 35,
          "material": 8,
          "mode": 4
        }
      ]
    },
    {
      "name": "future_car_002_by_unityfan_metal2_0",
      "primitives": [
        {
          "attributes": {
            "NORMAL": 37,
            "POSITION": 36,
            "TEXCOORD_0": 38
          },
          "indices": 39,
          "material": 9,
          "mode": 4
        }
      ]
    },
    {
      "name": "future_car_002_by_unityfan_rubber_0",
      "primitives": [
        {
          "attributes": {
            "NORMAL": 41,
            "POSITION": 40,
            "TEXCOORD_0": 42
          },
          "indices": 43,
          "material": 10,
          "mode": 4
        }
      ]
    }
  ],
  "nodes": [
    {
      "children": [
        1
      ],
      "matrix": [
        1.0,
        0.0,
        0.0,
        0.0,
        0.0,
        2.220446049250313e-16,
        -1.0,
        0.0,
        0.0,
        1.0,
        2.220446049250313e-16,
        0.0,
        0.0,
        0.0,
        0.0,
        1.0
      ],
      "name": "Sketchfab_model"
    },
    {
      "children": [
        2
      ],
      "matrix": [
        0.009999999776482582,
        0.0,
        0.0,
        0.0,
        0.0,
        0.0,
        0.009999999776482582,
        0.0,
        0.0,
        -0.009999999776482582,
        0.0,
        0.0,
        0.0,
        0.0,
        0.0,
        1.0
      ],
      "name": "498eebaaa20842488e6807e36d1058e4.fbx"
    },
    {
      "children": [
        3
      ],
      "name": "RootNode"
    },
    {
      "children": [
        4,
        5,
        6,
        7,
        8,
        9,
        10,
        11,
        12,
        13,
        14
      ],
      "matrix": [
        100.0,
        0.0,
        0.0,
        0.0,
        0.0,
        -1.629206793918314e-05,
        -99.99999999999868,
        0.0,
        0.0,
        99.99999999999868,
        -1.629206793918314e-05,
        0.0,
        0.0,
        0.0,
        0.0,
        1.0
      ],
      "name": "future_car_002_by_unityfan"
    },
    {
      "mesh": 0,
      "name": "future_car_002_by_unityfan_blocker_0"
    },
    {
      "mesh": 1,
      "name": "future_car_002_by_unityfan_carpaint_0"
    },
    {
      "mesh": 2,
      "name": "future_car_002_by_unityfan_glass1_0"
    },
    {
      "mesh": 3,
      "name": "future_car_002_by_unityfan_glass2_0"
    },
    {
      "mesh": 4,
      "name": "future_car_002_by_unityfan_plastic_0"
    },
    {
      "mesh": 5,
      "name": "future_car_002_by_unityfan_glass3_0"
    },
    {
      "mesh": 6,
      "name": "future_car_002_by_unityfan_metal1_0"
    },
    {
      "mesh": 7,
      "name": "future_car_002_by_unityfan_chrome_0"
    },
    {
      "mesh": 8,
      "name": "future_car_002_by_unityfan_taillights_0"
    },
    {
      "mesh": 9,
      "name": "future_car_002_by_unityfan_metal2_0"
    },
    {
      "mesh": 10,
      "name": "future_car_002_by_unityfan_rubber_0"
    }
  ],
  "scene": 0,
  "scenes": [
    {
      "name": "Sketchfab_Scene",
      "nodes": [
        0
      ]
    }
  ]
}
